<svg id="レイヤー_1" data-name="レイヤー 1" xmlns="http://www.w3.org/2000/svg" viewBox="0 0 28 64.67"><defs><style>.cls-1{stroke:#fff;stroke-width:6px;}</style></defs><path id="male-solid" class="cls-1" d="M14,3a7.34,7.34,0,1,1-7.33,7.33A7.33,7.33,0,0,1,14,3h0m5.5,16.5H18.2a10.07,10.07,0,0,1-8.39,0H8.5A5.5,5.5,0,0,0,3,25H3V40.58a2.75,2.75,0,0,0,2.75,2.75H7.58V58.92a2.75,2.75,0,0,0,2.75,2.75h7.34a2.75,2.75,0,0,0,2.75-2.75h0V43.33h1.83A2.75,2.75,0,0,0,25,40.58h0V25a5.5,5.5,0,0,0-5.5-5.5Z"/><path id="male-solid-2" data-name="male-solid" d="M14,3a7.34,7.34,0,1,1-7.33,7.33A7.33,7.33,0,0,1,14,3h0m5.5,16.5H18.2a10.07,10.07,0,0,1-8.39,0H8.5A5.5,5.5,0,0,0,3,25H3V40.58a2.75,2.75,0,0,0,2.75,2.75H7.58V58.92a2.75,2.75,0,0,0,2.75,2.75h7.34a2.75,2.75,0,0,0,2.75-2.75h0V43.33h1.83A2.75,2.75,0,0,0,25,40.58h0V25a5.5,5.5,0,0,0-5.5-5.5Z"/></svg>