<svg id="レイヤー_1" data-name="レイヤー 1" xmlns="http://www.w3.org/2000/svg" viewBox="0 0 32 42.63"><defs><style>.cls-1{fill:#fff;}.cls-2{fill:#1451a1;}</style></defs><path class="cls-1" d="M15.2,40c-1-1.29-2-2.54-2.94-3.76C6.21,28.56,1,22,1,15.35A14,14,0,0,1,5.39,5.2,15.26,15.26,0,0,1,16,1,15.26,15.26,0,0,1,26.61,5.2,14,14,0,0,1,31,15.35c0,6.5-5.11,13-11,20.53-1.07,1.36-2.13,2.71-3.18,4.08L16,41Z"/><path class="cls-2" d="M16,2a14.24,14.24,0,0,1,9.92,3.93A13,13,0,0,1,30,15.35c0,6.15-5,12.53-10.82,19.91-1,1.33-2.11,2.69-3.18,4.09-1-1.29-2-2.54-3-3.77-5.92-7.5-11-14-11-20.23A13,13,0,0,1,6.08,5.93,14.24,14.24,0,0,1,16,2m0-2A16.24,16.24,0,0,0,4.7,4.48,15,15,0,0,0,0,15.35C0,22.3,5.32,29,11.47,36.82c1,1.22,1.95,2.47,2.94,3.76L16,42.63l1.58-2.06c1.07-1.39,2.14-2.75,3.18-4.07C26.79,28.82,32,22.19,32,15.35A15,15,0,0,0,27.3,4.48,16.24,16.24,0,0,0,16,0Z"/><path class="cls-2" d="M16.49,16.38a6.38,6.38,0,0,1-4.72-.25h-2a4.69,4.69,0,0,0-4.69,4.69h0v.59a1.75,1.75,0,0,0,1.75,1.76h9.67Z"/><path class="cls-2" d="M14.44,15h0a5.34,5.34,0,0,0,2-.41V12.26H19A5.26,5.26,0,1,0,14.44,15Z"/><rect id="長方形_895" data-name="長方形 895" class="cls-2" x="17.42" y="13.26" width="9" height="11"/><path class="cls-1" d="M25.22,15.29a1,1,0,0,0-1.37.37L21.35,20l-1.73-1a1,1,0,0,0-1.36.36,1,1,0,0,0,.36,1.37l2.6,1.5h0a1,1,0,0,0,1.1-.07.27.27,0,0,0,.07-.08,1.07,1.07,0,0,0,.2-.22h0l3-5.19A1,1,0,0,0,25.22,15.29Z"/></svg>