<svg id="レイヤー_1" data-name="レイヤー 1" xmlns="http://www.w3.org/2000/svg" viewBox="0 0 32 42.63"><defs><style>.cls-1{fill:#fff;}.cls-2{fill:#1451a1;}</style></defs><path class="cls-1" d="M15.2,40c-1-1.29-2-2.54-2.94-3.76C6.21,28.56,1,22,1,15.35A14,14,0,0,1,5.39,5.2,15.26,15.26,0,0,1,16,1,15.26,15.26,0,0,1,26.61,5.2,14,14,0,0,1,31,15.35c0,6.5-5.11,13-11,20.53-1.07,1.36-2.13,2.71-3.18,4.08L16,41Z"/><path class="cls-2" d="M16,2a14.24,14.24,0,0,1,9.92,3.93A13,13,0,0,1,30,15.35c0,6.15-5,12.53-10.82,19.91-1,1.33-2.11,2.69-3.18,4.09-1-1.29-2-2.54-3-3.77-5.92-7.5-11-14-11-20.23A13,13,0,0,1,6.08,5.93,14.24,14.24,0,0,1,16,2m0-2A16.24,16.24,0,0,0,4.7,4.48,15,15,0,0,0,0,15.35C0,22.3,5.32,29,11.47,36.82c1,1.22,1.95,2.47,2.94,3.76L16,42.63l1.58-2.06c1.07-1.39,2.14-2.75,3.18-4.07C26.79,28.82,32,22.19,32,15.35A15,15,0,0,0,27.3,4.48,16.24,16.24,0,0,0,16,0Z"/><path class="cls-2" d="M21.92,13.48a5.28,5.28,0,1,0,5.28,5.28,5.28,5.28,0,0,0-5.28-5.28Z"/><path class="cls-1" d="M21.69,20.34A1.36,1.36,0,0,1,20.33,19V16.18a1.37,1.37,0,0,1,1.34-1.36h.48a1.36,1.36,0,0,1,1.36,1.34v1h.4a1.36,1.36,0,0,1,1.36,1.33V19a1.36,1.36,0,0,1-1.34,1.35H21.69Z"/><path class="cls-2" d="M22.15,15.82a.37.37,0,0,1,.36.36v2h1.4a.36.36,0,0,1,.36.35V19a.36.36,0,0,1-.36.35H21.69a.36.36,0,0,1-.36-.35V16.18a.37.37,0,0,1,.36-.36h.46m0-2h-.48a2.37,2.37,0,0,0-2.36,2.32V19a2.36,2.36,0,0,0,2.32,2.35h2.26A2.35,2.35,0,0,0,26.26,19v-.5a2.39,2.39,0,0,0-1.76-2.28v-.06a2.36,2.36,0,0,0-2.32-2.36Z"/><path class="cls-2" d="M14.44,15h0A5.28,5.28,0,1,0,9.17,9.68,5.28,5.28,0,0,0,14.45,15Z"/><path class="cls-2" d="M15.64,18.76a6.27,6.27,0,0,1,.43-2.26,6.39,6.39,0,0,1-4.3-.37h-2a4.69,4.69,0,0,0-4.69,4.69h0v.59a1.75,1.75,0,0,0,1.75,1.76H17.46A6.29,6.29,0,0,1,15.64,18.76Z"/></svg>