<svg id="レイヤー_1" data-name="レイヤー 1" xmlns="http://www.w3.org/2000/svg" viewBox="0 0 21.35 19.85"><defs><style>.cls-1{fill:#fff;}.cls-2{fill:#1451a1;}</style></defs><path class="cls-1" d="M11.42,12a6.35,6.35,0,0,1-4.71-.25h-2A4.69,4.69,0,0,0,0,16.41H0V17a1.76,1.76,0,0,0,1.76,1.76h9.66Z"/><path class="cls-1" d="M9.38,10.55h0a5.31,5.31,0,0,0,2-.41V7.85H14a5.26,5.26,0,1,0-4.58,2.7Z"/><rect id="長方形_895" data-name="長方形 895" class="cls-1" x="12.35" y="8.85" width="9" height="11"/><path class="cls-2" d="M20.15,10.88a1,1,0,0,0-1.36.37l-2.5,4.33-1.73-1a1,1,0,0,0-1.37.37,1,1,0,0,0,.37,1.36l2.59,1.5h0a1,1,0,0,0,1.11-.07l.07-.07a1.3,1.3,0,0,0,.19-.22h0l3-5.2A1,1,0,0,0,20.15,10.88Z"/></svg>