<svg id="レイヤー_1" data-name="レイヤー 1" xmlns="http://www.w3.org/2000/svg" viewBox="0 0 22.13 19.62"><defs><style>.cls-1{fill:#fff;}.cls-2{fill:#1451a1;}</style></defs><path class="cls-1" d="M16.85,9.07a5.28,5.28,0,1,0,5.28,5.28,5.28,5.28,0,0,0-5.28-5.28Z"/><path class="cls-2" d="M19.2,14.58a.36.36,0,0,1-.35.36H16.62a.36.36,0,0,1-.35-.36V11.77a.35.35,0,0,1,.35-.35h.47a.35.35,0,0,1,.35.35v2h1.41a.36.36,0,0,1,.35.35Z"/><path class="cls-1" d="M9.38,10.55h0A5.28,5.28,0,1,0,4.1,5.28,5.27,5.27,0,0,0,9.38,10.55Z"/><path class="cls-1" d="M10.58,14.35A6.06,6.06,0,0,1,11,12.09a6.32,6.32,0,0,1-4.3-.37h-2A4.69,4.69,0,0,0,0,16.41H0V17a1.76,1.76,0,0,0,1.76,1.76H12.4A6.23,6.23,0,0,1,10.58,14.35Z"/></svg>