<svg id="Outline" xmlns="http://www.w3.org/2000/svg" width="40" height="40" viewBox="0 0 40 40">
  <defs>
    <style>
      .cls-1 {
        fill: none;
      }
    </style>
  </defs>
  <g>
    <g>
      <path d="M32,6H8a4.00458,4.00458,0,0,0-4,4V30a4.00458,4.00458,0,0,0,4,4H32a4.00458,4.00458,0,0,0,4-4V10A4.00458,4.00458,0,0,0,32,6ZM8,8H32a2.002,2.002,0,0,1,2,2V22.58594l-5.293-5.293a.99962.99962,0,0,0-1.41406,0l-8.793,8.793-4.793-4.793a.99962.99962,0,0,0-1.41406,0L6,27.58594V10A2.002,2.002,0,0,1,8,8ZM6.03265,30.32288A.95562.95562,0,0,0,6.207,30.207L13,23.41406,17.08594,27.5l-4.5,4.5H8A1.9979,1.9979,0,0,1,6.03265,30.32288ZM32,32H15.41406L28,19.41406l6,6V30A2.002,2.002,0,0,1,32,32Z"/>
      <path d="M18,20a5,5,0,1,0-5-5A5.00588,5.00588,0,0,0,18,20Zm0-8a3,3,0,1,1-3,3A3.00328,3.00328,0,0,1,18,12Z"/>
    </g>
    <rect class="cls-1" width="40" height="40"/>
  </g>
</svg>
